<svg id="logo" xmlns="http://www.w3.org/2000/svg" width="60.544" height="55.162" viewBox="0 0 60.544 55.162">
  <path id="Icon_map-department-store" data-name="Icon map-department-store" d="M56.432,8.607c0-3.356-7.55-12.232-15.1-12.232S26.233,5.2,26.233,8.607H11.041v8.885h3.615l4.97,34.045H63l4.97-34.045h3.615V8.607H56.432Zm-5.033,0H31.266S34.084,1.116,41.332.685,51.4,8.607,51.4,8.607Z" transform="translate(-11.041 3.624)" fill="#2e2e2e"/>
  <path id="Icon_open-link-intact" data-name="Icon open-link-intact" d="M15.784.135a5.4,5.4,0,0,0-1.42.226,5.586,5.586,0,0,0-2.01,1.181,1.225,1.225,0,0,0-.6,1.3,1.3,1.3,0,0,0,1.065,1A1.378,1.378,0,0,0,14.2,3.275a2.652,2.652,0,0,1,1.018-.553,2.863,2.863,0,0,1,2.841.553,2.478,2.478,0,0,1,0,3.617l-4.02,3.768A3.68,3.68,0,0,1,11.2,11.84a2.069,2.069,0,0,1-1.1-.327,1.406,1.406,0,0,0-1.849.477,1.229,1.229,0,0,0,.509,1.733,5.289,5.289,0,0,0,2.251.628,6.666,6.666,0,0,0,4.85-1.959l4.02-3.768a4.756,4.756,0,0,0,0-7.058,5.32,5.32,0,0,0-2.6-1.331,6.023,6.023,0,0,0-1.5-.075Zm-5.359,5.8a6.621,6.621,0,0,0-4.77,1.884l-4.02,3.768a4.756,4.756,0,0,0,0,7.058,5.524,5.524,0,0,0,5.52,1.181,5.586,5.586,0,0,0,2.01-1.181,1.225,1.225,0,0,0,.6-1.3,1.3,1.3,0,0,0-1.065-1,1.378,1.378,0,0,0-1.382.561,2.652,2.652,0,0,1-1.018.553,2.863,2.863,0,0,1-2.841-.553,2.478,2.478,0,0,1,0-3.617l4.02-3.768a3.584,3.584,0,0,1,2.76-1.105A4.131,4.131,0,0,1,11.5,8.65a1.414,1.414,0,0,0,1.474.083,1.234,1.234,0,0,0,.66-1.238,1.282,1.282,0,0,0-.955-1.055,5.5,5.5,0,0,0-2.251-.553Z" transform="translate(19.513 27.446)" fill="#89d4d0"/>
</svg>
